# xmcd
#
# Track frame offsets:
#	183
#	12733
#	21485
#	35495
#	50673
#	63820
#	76220
#	85900
#	96303
#	106138
#	118945
#	132440
#
# Disc length: 1976 seconds
#
# Revision: 0
# Processed by: cddbd v1.4PL0 Copyright (c) Steve Scherf et al.
# Submitted via: audiograbber 1.81.01
#
DISCID=a207b60c
DTITLE=Little Tony - I grandi successi originali cd1
DYEAR=1900
DGENRE=pop
TTITLE0=24 Mila Baci
TTITLE1=Il Ragazzo Col Ciuffo
TTITLE2=T'amo E T'amero
TTITLE3=La Fine Di Agosto
TTITLE4=Non Aspetto Nessuno
TTITLE5=Quando Vedrai La Mia Ragazza
TTITLE6=Ogni Mattina
TTITLE7=Il Mio Amore Con Giulia
TTITLE8=My Baby Left Me
TTITLE9=Cuore Matto
TTITLE10=Ridera
TTITLE11=Prega Prega
EXTD=
EXTT0=
EXTT1=
EXTT2=
EXTT3=
EXTT4=
EXTT5=
EXTT6=
EXTT7=
EXTT8=
EXTT9=
EXTT10=
EXTT11=
PLAYORDER=
